<svg id="ezqxJ0pabKy1" xmlns="http://www.w3.org/2000/svg" xmlns:xlink="http://www.w3.org/1999/xlink" viewBox="0 0 300 300" shape-rendering="geometricPrecision" text-rendering="geometricPrecision"><path d="M190.386971,303.577551C232.696547,245.998302,290.85493,142.915117,304.3152,-1.212956c3.651243-39.096288-108.579061.636475-108.366678,4.788593c4.84998,94.81758-49.062988,224.437196-102.83161,299.202232" transform="matrix(1 0 0 1.029382-33.4293-8.239714)" fill="#cf3341" stroke-width="0.6"/><path d="M142.879117,301.527042c37.87436-78.653116,85.476651-199.755577,78.265833-299.902022C220.802345,-3.133196,197.844902,2.24922,150,0c14.681422,89.394897-17.705833,222.969563-78.490274,301.028436" transform="matrix(1 0 0 1.029725-18.178982-6.232341)" fill="#ffbf40" stroke-width="0.6"/><path d="M95.862071,291.249068c34.531269-69.514557,54.929484-169.266524,53.898992-265.627794-19.583979.027369-43.829087.027369-67.488094.027369c12.888636,72.290598.771761,190.555928-20.173319,265.600425" transform="matrix(1.094465 0 0 1.168891-23.456626-36.180823)" fill="#0825b6" stroke="#3f5787" stroke-width="0.6"/></svg>
